<svg width="32" height="32" viewBox="0 0 32 32" fill="none" xmlns="http://www.w3.org/2000/svg">
<path d="M29.3333 14.5334V5.46669C29.3333 3.46669 28.48 2.66669 26.36 2.66669H20.9733C18.8533 2.66669 18 3.46669 18 5.46669V14.5334C18 16.5334 18.8533 17.3334 20.9733 17.3334H26.36C28.48 17.3334 29.3333 16.5334 29.3333 14.5334Z" fill="#BB0000"/>
<path d="M29.3333 26.5333V24.1333C29.3333 22.1333 28.48 21.3333 26.36 21.3333H20.9733C18.8533 21.3333 18 22.1333 18 24.1333V26.5333C18 28.5333 18.8533 29.3333 20.9733 29.3333H26.36C28.48 29.3333 29.3333 28.5333 29.3333 26.5333Z" fill="#BB0000"/>
<path d="M14 17.4667V26.5334C14 28.5334 13.1467 29.3334 11.0267 29.3334H5.64002C3.52002 29.3334 2.66669 28.5334 2.66669 26.5334V17.4667C2.66669 15.4667 3.52002 14.6667 5.64002 14.6667H11.0267C13.1467 14.6667 14 15.4667 14 17.4667Z" fill="#BB0000"/>
<path d="M14 5.46669V7.86669C14 9.86669 13.1467 10.6667 11.0267 10.6667H5.64002C3.52002 10.6667 2.66669 9.86669 2.66669 7.86669V5.46669C2.66669 3.46669 3.52002 2.66669 5.64002 2.66669H11.0267C13.1467 2.66669 14 3.46669 14 5.46669Z" fill="#BB0000"/>
</svg>
