<svg width="32" height="32" viewBox="0 0 32 32" fill="none" xmlns="http://www.w3.org/2000/svg">
<path d="M29.3334 8.33335V15.1333C29.3334 16.8267 28.7734 18.2533 27.7734 19.24C26.7867 20.24 25.36 20.8 23.6667 20.8V23.2133C23.6667 24.12 22.6533 24.6667 21.9067 24.16L20.6134 23.3067C20.7334 22.8933 20.7867 22.44 20.7867 21.96V16.5334C20.7867 13.8134 18.9734 12 16.2534 12H7.20001C7.01335 12 6.84002 12.0134 6.66669 12.0267V8.33335C6.66669 4.93335 8.93335 2.66669 12.3334 2.66669H23.6667C27.0667 2.66669 29.3334 4.93335 29.3334 8.33335Z" fill="#BB0000" stroke="#1F1F1F" stroke-width="2" stroke-miterlimit="10" stroke-linecap="round" stroke-linejoin="round"/>
<path d="M20.7867 16.5334V21.96C20.7867 22.44 20.7334 22.8933 20.6134 23.3066C20.12 25.2666 18.4934 26.4933 16.2534 26.4933H12.6267L8.60002 29.1733C8.00002 29.5867 7.20001 29.1467 7.20001 28.4267V26.4933C5.84001 26.4933 4.70669 26.04 3.92002 25.2533C3.12002 24.4533 2.66669 23.32 2.66669 21.96V16.5334C2.66669 14 4.24002 12.2534 6.66669 12.0267C6.84002 12.0134 7.01335 12 7.20001 12H16.2534C18.9734 12 20.7867 13.8134 20.7867 16.5334Z" fill="#BB0000" stroke="#1F1F1F" stroke-width="2" stroke-miterlimit="10" stroke-linecap="round" stroke-linejoin="round"/>
</svg>
